<svg width="48" height="48" viewBox="0 0 48 48" fill="none" xmlns="http://www.w3.org/2000/svg">
<path d="M40.8028 36.0708V37.0083C40.8028 39.0565 39.1423 40.717 37.094 40.717H10.9059C8.85764 40.717 7.19714 39.0565 7.19714 37.0083V36.0708H40.8028Z" fill="#FFE145"/>
<path d="M40.7559 16.388V17.9161H7.245V16.388C7.245 11.3594 11.3214 7.28296 16.35 7.28296H31.6509C36.6795 7.28296 40.7559 11.3594 40.7559 16.388Z" fill="#FFE145"/>
<path d="M48 26.243H47.0625C48.3796 24.5538 48.0779 22.1166 46.3887 20.7996C45.7927 20.3347 45.0737 20.0543 44.3203 19.9926V16.388C44.3203 9.40265 38.6372 3.72046 31.6528 3.72046H16.35C9.36469 3.72046 3.6825 9.40358 3.6825 16.388V19.9926C1.54753 20.1659 -0.04275 22.0371 0.1305 24.1721C0.191719 24.9263 0.472219 25.6461 0.9375 26.243H0V27.743H1.99406V34.0083H3.63469V37.0083C3.63881 41.0224 6.89184 44.2754 10.9059 44.2795H37.0941C41.1082 44.2754 44.3612 41.0224 44.3653 37.0083V34.0083H46.0059V27.743H48V26.243ZM5.18156 16.388C5.18831 10.2226 10.1846 5.22627 16.35 5.21952H31.65C37.8154 5.22627 42.8117 10.2226 42.8184 16.388V19.9786H5.18156V16.388ZM4.00125 21.4786H43.9987C45.3146 21.4786 46.3814 22.5454 46.3814 23.8612C46.3814 25.1771 45.3146 26.2439 43.9987 26.2439H4.00125C2.68538 26.2439 1.61859 25.1771 1.61859 23.8612C1.61859 22.5454 2.68538 21.4786 4.00125 21.4786ZM37.7859 27.7439L34.7109 29.1505L31.6359 27.7439H37.7859ZM42.8644 37.0092C42.8607 40.1951 40.279 42.7768 37.0931 42.7805H10.9059C7.72003 42.7768 5.13834 40.1951 5.13469 37.0092V34.0092H42.8653L42.8644 37.0092ZM44.505 32.5092H3.49406V27.743H29.2031L34.7109 31.0555L40.2188 27.743H44.505V32.5092Z" fill="#B79C10"/>
</svg>
