<svg width="48" height="48" viewBox="0 0 48 48" fill="none" xmlns="http://www.w3.org/2000/svg">
<path d="M11.9681 30.367V29.062C11.9733 24.6113 15.58 21.0047 20.0306 20.9995H23.8491C29.5997 20.9995 34.4316 25.0036 35.7047 30.3745L11.9681 30.367Z" fill="#FFE145"/>
<path d="M48 32.4293H39.5756C39.4182 29.1694 38.252 26.0388 36.2381 23.4705C36.4745 22.6073 36.4651 21.6953 36.2109 20.8371L38.6831 18.3649C39.8509 19.2474 41.513 19.0164 42.3955 17.8486C43.2781 16.6809 43.047 15.0188 41.8792 14.1362C41.4089 13.7807 40.8336 13.5922 40.2441 13.6005C40.2646 12.1369 39.0947 10.9338 37.6312 10.9134C36.1675 10.8928 34.9644 12.0627 34.944 13.5263C34.9357 14.1158 35.1243 14.6911 35.4797 15.1614L33.0103 17.6308C31.618 17.2155 30.1124 17.457 28.92 18.2871C27.2942 17.7364 25.5891 17.4564 23.8725 17.4583H20.0287C13.6115 17.4655 8.41097 22.666 8.40375 29.0833V32.4302H0V33.9302H6.55125L9.98906 37.0868H38.0109L41.4487 33.9302H48V32.4293ZM37.7316 15.0321L36.9628 14.5258C36.4315 14.1774 36.2833 13.4644 36.6317 12.9331C36.9801 12.4018 37.6931 12.2536 38.2244 12.602C38.7557 12.9504 38.9039 13.6634 38.5555 14.1947C38.5125 14.2603 38.4629 14.3213 38.4075 14.3768L39.4688 15.438C39.9179 14.9888 40.6462 14.9887 41.0955 15.4379C41.5448 15.8871 41.5448 16.6154 41.0956 17.0647C40.6463 17.5139 39.9181 17.514 39.4688 17.0648C39.4133 17.0093 39.3637 16.9482 39.3206 16.8827L38.8144 16.1139L35.5125 19.4158C35.2126 18.9992 34.8473 18.6339 34.4306 18.3339L37.7316 15.0321ZM9.90563 29.0824C9.91181 23.4931 14.4413 18.9636 20.0306 18.9574H23.8744C25.1463 18.9561 26.4126 19.1254 27.6394 19.4608L25.4241 21.6743L26.4844 22.7346L29.3278 19.8911C30.6054 18.6138 32.6766 18.614 33.9539 19.8916C35.2312 21.1692 35.2311 23.2404 33.9534 24.5177L31.11 27.3611L32.1703 28.4214L35.0138 25.578C35.1929 25.3986 35.3574 25.2052 35.5059 24.9996C37.0412 27.1865 37.9307 29.761 38.0728 32.4293H9.90563V29.0824ZM37.4269 35.5858H10.5731L8.76937 33.9293H39.2306L37.4269 35.5858Z" fill="#B79C10"/>
<path d="M12.9681 28.3953C12.9681 28.9648 13.4298 29.4265 13.9994 29.4265C14.5689 29.4265 15.0306 28.9648 15.0306 28.3953C15.0306 27.8257 14.5689 27.364 13.9994 27.364C13.4298 27.364 12.9681 27.8257 12.9681 28.3953Z" fill="#B79C10"/>
<path d="M17.8984 28.3953C17.8984 28.9648 18.3601 29.4265 18.9297 29.4265C19.4992 29.4265 19.9609 28.9648 19.9609 28.3953C19.9609 27.8257 19.4992 27.364 18.9297 27.364C18.3601 27.364 17.8984 27.8257 17.8984 28.3953Z" fill="#B79C10"/>
<path d="M15.4327 24.6807C15.4327 25.2502 15.8944 25.7119 16.464 25.7119C17.0335 25.7119 17.4952 25.2502 17.4952 24.6807C17.4952 24.1111 17.0335 23.6494 16.464 23.6494C15.8944 23.6494 15.4327 24.1111 15.4327 24.6807Z" fill="#B79C10"/>
</svg>
