<svg width="48" height="48" viewBox="0 0 48 48" fill="none" xmlns="http://www.w3.org/2000/svg">
<path d="M18.7246 18.167C15.5724 18.167 12.5824 18.7559 10.0484 19.8551C13.4897 24.1903 13.4827 30.3274 10.0315 34.6547C12.5685 35.7558 15.5649 36.3429 18.7246 36.3429C24.8779 36.3429 30.0136 32.2669 33.3937 27.2549C30.0099 22.2373 24.8817 18.167 18.7246 18.167Z" fill="#FFE145"/>
<path d="M47.2497 19.5174C43.0716 19.5174 39.2779 22.5973 36.7578 25.8846C33.8832 21.3378 29.449 17.1943 24.1838 15.4743V8.09326L11.6952 15.5184C5.82131 17.1192 0 21.2581 0 27.2548C0 34.6743 8.95753 39.9067 18.7245 39.9067C26.2808 39.9067 32.7699 34.9359 36.7578 28.626C39.2806 31.9086 43.0715 34.9932 47.2497 34.9932H48V19.5183L47.2497 19.5174ZM22.6823 10.7315V15.0607C20.7944 14.6217 18.7865 14.4585 15.9372 14.7418L22.6823 10.7315ZM1.50056 27.2548C1.50056 23.4396 4.43419 20.445 7.81238 18.6424C13.2333 23.0973 13.2333 31.4124 7.79175 35.856C4.407 34.044 1.50056 31.0503 1.50056 27.2548ZM18.7245 38.406C15.3201 38.406 12.0769 37.772 9.26803 36.5649C14.7377 31.5811 14.7452 22.9302 9.28866 17.9351C12.092 16.7347 15.3285 16.1034 18.7245 16.1034C26.0596 16.1034 32.3002 21.2805 35.8208 27.2312L35.8058 27.2546L35.8208 27.2781C32.2955 33.2469 26.054 38.406 18.7245 38.406ZM46.4994 33.4531C42.0793 32.9935 38.596 28.6203 37.6094 27.2547C38.5942 25.8882 42.0699 21.5159 46.4994 21.0573V33.4531Z" fill="#B79C10"/>
</svg>
