<svg width="48" height="48" viewBox="0 0 48 48" fill="none" xmlns="http://www.w3.org/2000/svg">
<path d="M32.0815 21.7243V0H20.4186V4.71694H15.3395V21.697L9 21.6867L12.6617 48H34.7594L38.4126 21.7384L32.0815 21.7243ZM27.0025 1.50206H30.5767V21.6885H27.0025V1.50206ZM21.9234 1.50206H25.4976V21.6885H21.9234V1.50206ZM16.8443 6.22181H20.4185V21.6885H16.8443V6.22181ZM33.4501 46.4951H13.9709L10.7306 23.1944L36.6837 23.2367L33.4501 46.4951Z" fill="#B79C10"/>
<path d="M13.1084 25.2673L15.7731 44.4258H31.6479L34.3079 25.306L13.1084 25.2673ZM23.7105 41.1338C20.6456 41.1338 18.1611 38.6493 18.1611 35.5844C18.1611 32.5196 20.6456 30.0351 23.7105 30.0351C26.7754 30.0351 29.2598 32.5196 29.2598 35.5844C29.2598 38.6493 26.7754 41.1338 23.7105 41.1338Z" fill="#FFE145"/>
<path d="M23.7105 41.8863C20.2301 41.8863 17.4087 39.0649 17.4087 35.5845C17.4087 32.1041 20.2301 29.2827 23.7105 29.2827C27.1908 29.2827 30.0123 32.1041 30.0123 35.5845C30.0071 39.0627 27.1887 41.8811 23.7105 41.8863ZM23.7105 30.7876C21.0612 30.7876 18.9136 32.9352 18.9136 35.5845C18.9136 38.2338 21.0612 40.3814 23.7105 40.3814C26.3598 40.3814 28.5074 38.2338 28.5074 35.5845C28.5033 32.937 26.358 30.7917 23.7105 30.7876Z" fill="#B79C10"/>
</svg>
