<svg width="48" height="48" viewBox="0 0 48 48" fill="none" xmlns="http://www.w3.org/2000/svg">
<path d="M24 0L4.55884 38.0969C9.6384 44.8034 16.7005 48 24 48C31.2243 48 38.3174 44.8616 43.4411 38.0969L24 0ZM39.2547 33.1947C34.1723 41.6194 23.2225 44.3288 14.7978 39.2464C12.3188 37.7509 10.2417 35.6737 8.74618 33.1947L24 3.30263L39.2547 33.1947ZM24 46.4989C17.1076 46.5058 10.593 43.3497 6.32649 37.9366L7.95437 34.7466C13.8946 43.6073 25.893 45.975 34.7537 40.0348C36.844 38.6333 38.6404 36.837 40.0419 34.7466L41.6698 37.9366C37.404 43.3486 30.8911 46.5047 24 46.4989Z" fill="#B79C10"/>
<path d="M28.222 16.1187C28.1702 17.6439 26.8917 18.8382 25.3666 18.7863C23.8414 18.7344 22.6471 17.456 22.699 15.9308C22.7509 14.4057 24.0293 13.2113 25.5544 13.2633C26.0714 13.2808 26.573 13.4432 27.0023 13.7318L24 7.84351L11.1274 33.0679C16.1383 40.1769 25.9634 41.8778 33.0723 36.8672C34.547 35.8277 35.8322 34.5427 36.8717 33.0679L28.222 16.1187ZM18.47 28.8158C16.9429 28.8158 15.7051 27.578 15.7051 26.0509C15.7051 24.5238 16.9429 23.2859 18.47 23.2859C19.9971 23.2859 21.235 24.5238 21.235 26.0509C21.235 27.578 19.9971 28.8158 18.47 28.8158ZM29.1443 35.4276C27.6172 35.4276 26.3793 34.1897 26.3793 32.6626C26.3793 31.1355 27.6172 29.8976 29.1443 29.8976C30.6703 29.8976 31.9077 31.1338 31.9093 32.6598C31.9109 34.1869 30.6742 35.426 29.1471 35.4276C29.1462 35.4276 29.1453 35.4276 29.1443 35.4276Z" fill="#FFE145"/>
<path d="M29.1443 36.1783C27.2028 36.1783 25.6288 34.6043 25.6288 32.6627C25.6288 30.7212 27.2028 29.1472 29.1443 29.1472C31.0859 29.1472 32.6598 30.7212 32.6598 32.6627C32.6578 34.6035 31.085 36.1762 29.1443 36.1783ZM29.1443 30.6483C28.0318 30.6483 27.1299 31.5502 27.1299 32.6627C27.1299 33.7753 28.0318 34.6772 29.1443 34.6772C30.2568 34.6772 31.1587 33.7753 31.1587 32.6627C31.1608 31.5492 30.2598 30.6448 29.1462 30.6427C29.1455 30.6427 29.145 30.6427 29.1443 30.6427V30.6483Z" fill="#B79C10"/>
<path d="M18.47 29.5665C16.5284 29.5665 14.9545 27.9925 14.9545 26.0509C14.9545 24.1094 16.5284 22.5354 18.47 22.5354C20.4116 22.5354 21.9855 24.1094 21.9855 26.0509C21.9835 27.9917 20.4107 29.5644 18.47 29.5665ZM18.47 24.0365C17.3575 24.0365 16.4556 24.9384 16.4556 26.0509C16.4556 27.1635 17.3575 28.0653 18.47 28.0653C19.5825 28.0653 20.4844 27.1635 20.4844 26.0509C20.4828 24.9392 19.5817 24.0385 18.47 24.0375V24.0365Z" fill="#B79C10"/>
<path d="M25.4599 19.5406C23.5183 19.5422 21.9431 17.9694 21.9415 16.0279C21.9399 14.0863 23.5127 12.5111 25.4543 12.5095C27.3958 12.5079 28.971 14.0807 28.9726 16.0222C28.9726 16.0232 28.9726 16.0241 28.9726 16.0251C28.9705 17.9647 27.3995 19.5369 25.4599 19.5406ZM25.4599 14.0106C24.3473 14.0091 23.4443 14.9096 23.4427 16.0222C23.4411 17.1348 24.3416 18.0379 25.4543 18.0395C26.5669 18.0411 27.4699 17.1405 27.4715 16.0279C27.4715 16.0269 27.4715 16.026 27.4715 16.0251C27.4704 14.914 26.5708 14.0133 25.4599 14.0106Z" fill="#B79C10"/>
</svg>
