<svg width="48" height="48" viewBox="0 0 48 48" fill="none" xmlns="http://www.w3.org/2000/svg">
<g clip-path="url(#clip0_17_6311)">
<path d="M44.956 44.2365C39.8777 43.149 35.9178 40.7313 32.9412 37.1819L29.4819 33.057C26.945 30.0281 22.4329 29.6294 19.404 32.1664C19.0815 32.4365 18.7835 32.7345 18.5134 33.057L15.0541 37.1819C12.0814 40.7274 8.12325 43.148 3.03928 44.2365L0.9375 41.4877C1.19062 40.9899 1.66594 40.1818 1.66594 38.8853C1.66688 37.3235 1.03125 36.2247 0 35.2498V32.5986C1.04063 31.6171 1.66688 30.5165 1.66688 28.9622C1.66688 27.4078 1.03125 26.3016 0 25.3257V22.6744C1.04063 21.6928 1.66688 20.5922 1.66688 19.0379C1.66688 17.4836 1.03125 16.3774 0 15.4024V12.7503C1.04063 11.7687 1.66688 10.6671 1.66688 9.1138C1.66688 7.84255 1.21219 7.0513 0.939375 6.51139L3.04312 3.76367C8.12241 4.85211 12.0814 7.26889 15.0578 10.8183L18.5171 14.9432C21.0541 17.972 25.5662 18.3708 28.5951 15.8338C28.9176 15.5637 29.2156 15.2657 29.4857 14.9432L32.945 10.8183C35.9177 7.27273 39.8758 4.85211 44.9598 3.76367L47.0617 6.51233C46.8123 7.00358 46.3332 7.81733 46.3332 9.11473C46.3332 10.6766 46.967 11.7753 48.0001 12.7512V15.4024C46.9595 16.3839 46.3332 17.4845 46.3332 19.0388C46.3332 20.5931 46.9679 21.6984 47.9992 22.6744V25.3255C46.9585 26.3071 46.3323 27.4077 46.3323 28.962C46.3323 30.5164 46.9679 31.6225 47.9992 32.5985V35.2496C46.9585 36.2312 46.3323 37.3318 46.3323 38.8861C46.3323 40.1545 46.7842 40.9439 47.0607 41.4885L44.956 44.2365ZM23.9995 28.9977C26.5594 28.9949 28.9886 30.128 30.6313 32.0914L34.0906 36.2163C36.7445 39.3699 40.3366 41.5934 44.3429 42.5621L45.3057 41.304C44.9908 40.5351 44.8291 39.7123 44.8295 38.8816C44.8237 37.2989 45.4207 35.7735 46.4992 34.6151V33.2314C44.2763 30.8184 44.2763 27.1039 46.4992 24.6909V23.3081C44.2763 20.8952 44.2763 17.1806 46.4992 14.7677V13.3849C45.4208 12.2251 44.8248 10.6983 44.8323 9.11464C44.8319 8.28383 44.9937 7.46098 45.3085 6.69223L44.3429 5.43786C40.3353 6.40648 36.7421 8.63052 34.0878 11.7856L30.6285 15.9105C27.5577 19.5728 22.0994 20.0524 18.4371 16.9816C18.0494 16.6565 17.691 16.2981 17.366 15.9105L13.9067 11.7856C11.2536 8.63155 7.66209 6.40752 3.65625 5.43786L2.69063 6.69223C3.00544 7.46108 3.16725 8.28392 3.16687 9.11473C3.17437 10.6984 2.57831 12.2252 1.5 13.385V14.7687C2.57831 15.9285 3.17437 17.4553 3.16687 19.0389C3.17419 20.6222 2.57812 22.1487 1.5 23.3082V24.692C2.57831 25.8517 3.17437 27.3785 3.16687 28.9622C3.17419 30.5454 2.57812 32.072 1.5 33.2315V34.6152C2.57831 35.775 3.17437 37.3018 3.16687 38.8854C3.16725 39.7162 3.00553 40.5391 2.69063 41.3078L3.65625 42.5622C7.66378 41.5935 11.2569 39.3695 13.9114 36.2145L17.3707 32.0896C19.013 30.1277 21.441 28.9952 23.9995 28.9977Z" fill="#B79C10"/>
<path d="M42.8373 39.9514C40.0527 38.909 37.5842 37.1653 35.6712 34.8889L32.2109 30.764C28.4083 26.2288 21.6492 25.6348 17.1139 29.4373C16.6337 29.8399 16.1898 30.2839 15.7872 30.764L12.3279 34.8889C10.4148 37.1653 7.94647 38.9089 5.16172 39.9514C5.43678 37.8167 4.87953 35.6581 3.60547 33.9233C4.66325 32.4854 5.23231 30.7463 5.22922 28.9612C5.23212 27.1764 4.66306 25.4377 3.60547 24.0001C4.66325 22.5621 5.23231 20.8231 5.22922 19.038C5.23231 17.2529 4.66325 15.5138 3.60547 14.0759C4.87953 12.3411 5.43678 10.1825 5.16172 8.04785C7.94637 9.09026 10.4148 10.834 12.3279 13.1103L15.7872 17.2352C19.5897 21.7704 26.3489 22.3644 30.8842 18.5619C31.3644 18.1594 31.8083 17.7154 32.2109 17.2352L35.6702 13.1103C37.5833 10.834 40.0516 9.09026 42.8364 8.04785C42.5613 10.1825 43.1186 12.3411 44.3926 14.0759C42.2278 17.0294 42.2278 21.0456 44.3926 23.9991C42.2278 26.9526 42.2278 30.9689 44.3926 33.9224C43.1187 35.6575 42.5617 37.8165 42.8373 39.9514Z" fill="#FFE145"/>
<path d="M27.441 23.9952C28.5364 23.4877 29.506 22.7443 30.2806 21.8183L33.542 17.9287L32.3955 16.9688L29.134 20.8583C26.7401 23.6943 22.5004 24.0528 19.6645 21.6589C19.3756 21.415 19.1078 21.1472 18.8639 20.8583L15.6034 16.9688L14.454 17.9325L17.7183 21.8183C18.494 22.7447 19.465 23.4881 20.5616 23.9952C19.4649 24.5023 18.4939 25.2457 17.7183 26.1721L14.4568 30.0617L15.6062 31.0254L18.8676 27.1358C21.2615 24.2999 25.5012 23.9414 28.3371 26.3352C28.6261 26.5791 28.8938 26.8469 29.1378 27.1358L32.3992 31.0254L33.5486 30.0617L30.2806 26.1721C29.506 25.2461 28.5364 24.5028 27.441 23.9952Z" fill="#B79C10"/>
</g>
<defs>
<clipPath id="clip0_17_6311">
<rect width="48" height="48" fill="white"/>
</clipPath>
</defs>
</svg>
