<svg width="48" height="48" viewBox="0 0 48 48" fill="none" xmlns="http://www.w3.org/2000/svg">
<g clip-path="url(#clip0_17_2361)">
<circle cx="23" cy="25" r="23" fill="#FFE145"/>
<path d="M25 45.9998C29.179 46.0035 33.2797 44.8652 36.8588 42.7078C37.2212 42.4886 37.3374 42.0172 37.1183 41.6547C36.8992 41.2923 36.4277 41.1761 36.0653 41.3952C29.0757 45.5904 20.3131 45.4646 13.4468 41.0705C6.58055 36.6764 2.79568 28.7723 3.67715 20.6682C4.55862 12.5641 9.95432 5.65854 17.6047 2.84337C18.0023 2.69751 18.2064 2.25695 18.0605 1.85936C17.9146 1.46177 17.4741 1.25771 17.0765 1.40357C6.60257 5.24088 0.391978 16.0406 2.3433 27.0233C4.29462 38.006 13.8453 46.0053 25 45.9998Z" fill="#313030"/>
<path d="M32.3952 2.84337C38.451 5.06833 43.1858 9.89746 45.291 15.9959C47.3962 22.0942 46.6487 28.8159 43.2551 34.3028C43.1107 34.5356 43.1016 34.8277 43.231 35.0692C43.3605 35.3106 43.6089 35.4646 43.8827 35.4732C44.1565 35.4818 44.4141 35.3437 44.5584 35.1108C48.1953 29.2322 48.9969 22.03 46.7413 15.4957C44.4858 8.96128 39.4123 3.78704 32.9235 1.40357C32.5259 1.25771 32.0853 1.46177 31.9395 1.85936C31.7936 2.25695 31.9977 2.69751 32.3952 2.84337Z" fill="#313030"/>
<path d="M21.9333 14.2446V20.7237C21.1201 21.799 20.9374 23.2247 21.4533 24.4703C21.9692 25.7159 23.1064 26.595 24.4418 26.7804L30.4165 32.755L30.4211 32.7619L41.2633 43.6003C41.5509 43.888 41.941 44.0496 42.3477 44.0496C42.7545 44.0496 43.1446 43.888 43.4322 43.6003C45.8334 41.1983 44.4143 38.0803 38.0111 31.674L34.7581 28.421H34.7528L28.7766 22.441C28.6857 21.8187 28.4418 21.2286 28.0667 20.7237V14.2431C29.4645 13.6363 30.3683 12.2571 30.3667 10.7333V2.29992C30.3709 1.68939 30.1265 1.10342 29.6897 0.676889C29.6534 0.63768 29.6139 0.601525 29.5716 0.568788C28.7005 -0.200403 27.3891 -0.187498 26.5333 0.598688C26.1094 0.207203 25.5517 -0.00706154 24.9747 -7.86756e-05C24.4152 0.0121544 23.8786 0.224289 23.462 0.597922C22.6141 -0.182239 21.3154 -0.201051 20.4452 0.554222C19.9286 0.986531 19.631 1.62627 19.6333 2.29992V10.7333C19.6311 12.2577 20.535 13.6376 21.9333 14.2446ZM30.9647 31.1266L26.3946 26.5573C27.3865 26.1677 28.1715 25.3827 28.5612 24.3907L33.1267 28.9646L30.9647 31.1266ZM26.5333 19.4917C25.557 19.0582 24.4429 19.0582 23.4666 19.4917V14.5666H26.5333V19.4917ZM22.7 22.9999C22.7 21.7297 23.7297 20.6999 25 20.6999C26.2702 20.6999 27.3 21.7297 27.3 22.9999C27.3 24.2702 26.2702 25.2999 25 25.2999C23.7297 25.2999 22.7 24.2702 22.7 22.9999ZM42.3474 42.5162L32.048 32.216L34.2161 30.0479L36.927 32.7581C44.5163 40.3473 43.1593 41.7066 42.3474 42.5162ZM21.1666 2.29992C21.1687 2.07366 21.2705 1.85985 21.4449 1.71572C21.7493 1.45629 22.2032 1.47915 22.4799 1.76786C22.6221 1.90823 22.7015 2.10013 22.7 2.29992V8.43326C22.7 8.85668 23.0432 9.19993 23.4666 9.19993C23.8901 9.19993 24.2333 8.85668 24.2333 8.43326V2.29992C24.2392 1.89963 24.5468 1.56857 24.9456 1.53326H25.0721C25.4652 1.5743 25.7645 1.90464 25.7667 2.29992V8.43326C25.7667 8.85668 26.1099 9.19993 26.5333 9.19993C26.9567 9.19993 27.3 8.85668 27.3 8.43326V2.29992C27.3 1.8765 27.6432 1.53326 28.0667 1.53326C28.4901 1.53326 28.8333 1.8765 28.8333 2.29992V10.7333C28.8339 11.7879 28.1157 12.7073 27.0922 12.962C26.9102 13.0117 26.722 13.0357 26.5333 13.0333H23.4666C23.2713 13.035 23.0767 13.0092 22.8886 12.9566C21.8736 12.6967 21.1644 11.781 21.1666 10.7333V2.29992Z" fill="#313030"/>
<path d="M18.0302 5.96003C17.854 5.57526 17.3993 5.40608 17.0144 5.58207C16.4877 5.8228 15.9809 6.09343 15.481 6.37787C15.4588 6.3886 15.435 6.3886 15.4136 6.40087C15.3921 6.41313 15.3745 6.4392 15.3515 6.4553C12.5042 8.12006 10.1347 10.4914 8.47215 13.34C8.44677 13.3637 8.42319 13.3894 8.40162 13.4166C8.38923 13.4458 8.37898 13.4757 8.37095 13.5063C4.98188 19.3996 4.98773 26.6518 8.38629 32.5396C8.39395 32.5534 8.39319 32.5695 8.40162 32.5833C8.41005 32.5971 8.42922 32.6178 8.44225 32.6362C10.1196 35.5059 12.5099 37.8935 15.3814 39.5677C15.3944 39.5769 15.4021 39.5907 15.4166 39.5991C15.4384 39.6094 15.4606 39.6186 15.4833 39.6267C21.1969 42.908 28.1972 43.0166 34.0098 39.9142C34.2587 39.7891 34.4202 39.5389 34.4316 39.2605C34.443 38.9822 34.3025 38.7196 34.0647 38.5746C33.8268 38.4296 33.5291 38.425 33.2869 38.5626C30.9646 39.7983 28.3949 40.4978 25.7666 40.6096V39.1C25.7666 38.6766 25.4234 38.3333 25 38.3333C24.5765 38.3333 24.2333 38.6766 24.2333 39.1V40.6142C21.6593 40.5048 19.1412 39.8286 16.8587 38.6339L17.6139 37.3267C17.753 37.0894 17.7543 36.7957 17.6173 36.5571C17.4803 36.3185 17.2259 36.1717 16.9508 36.1723C16.6757 36.1729 16.422 36.3209 16.286 36.56L15.5324 37.8634C13.3635 36.4765 11.5219 34.6349 10.1351 32.466L11.4384 31.7124C11.6776 31.5764 11.8255 31.3227 11.8261 31.0476C11.8267 30.7725 11.6799 30.5181 11.4413 30.3811C11.2028 30.2441 10.9091 30.2454 10.6717 30.3845L9.36839 31.1397C8.17303 28.8578 7.49606 26.3403 7.38578 23.7666H8.89995C9.32337 23.7666 9.66662 23.4234 9.66662 23C9.66662 22.5766 9.32337 22.2333 8.89995 22.2333H7.39498C7.50741 19.6615 8.18344 17.1458 9.37529 14.8641L10.6733 15.6139C10.9106 15.753 11.2043 15.7543 11.4428 15.6173C11.6814 15.4803 11.8283 15.2259 11.8277 14.9508C11.8271 14.6757 11.6791 14.422 11.4399 14.286L10.1366 13.5332C11.5198 11.3617 13.3612 9.51904 15.5316 8.1343L16.286 9.43764C16.422 9.6768 16.6757 9.82477 16.9508 9.82537C17.2259 9.82598 17.4803 9.67913 17.6173 9.44056C17.7543 9.202 17.753 8.90831 17.6139 8.67097L16.8633 7.36763C17.124 7.23193 17.3831 7.09394 17.6522 6.9705C18.034 6.7943 18.2026 6.34352 18.0302 5.96003Z" fill="#313030"/>
<path d="M40.8585 32.3379C41.0375 32.4345 41.2474 32.4561 41.4422 32.3978C41.6371 32.3396 41.8008 32.2064 41.8974 32.0274C45.0159 26.2225 44.9145 19.2184 41.629 13.5063C41.621 13.4757 41.6107 13.4457 41.5984 13.4166C41.5771 13.3893 41.5537 13.3637 41.5286 13.3399C39.8648 10.491 37.494 8.11964 34.6455 6.45526C34.6225 6.43916 34.6079 6.41539 34.5833 6.40083C34.5613 6.39227 34.5387 6.38485 34.5159 6.37859C34.0191 6.09339 33.5123 5.82276 32.9825 5.58203C32.6012 5.42548 32.1644 5.59847 31.9936 5.97363C31.8228 6.34879 31.9793 6.79184 32.3477 6.97659C32.6168 7.10003 32.876 7.23803 33.1366 7.37373L32.3861 8.67706C32.2469 8.9144 32.2456 9.20809 32.3827 9.44665C32.5197 9.68522 32.774 9.83207 33.0492 9.83146C33.3243 9.83086 33.578 9.68289 33.714 9.44373L34.4683 8.14039C36.6388 9.52513 38.4802 11.3678 39.8634 13.5393L38.5601 14.2921C38.3209 14.4281 38.1729 14.6818 38.1723 14.9569C38.1717 15.232 38.3186 15.4864 38.5571 15.6234C38.7957 15.7604 39.0894 15.7591 39.3267 15.62L40.6247 14.8702C41.8157 17.1501 42.4917 19.6636 42.605 22.2333H41.1C40.6766 22.2333 40.3334 22.5765 40.3334 22.9999C40.3334 23.4233 40.6766 23.7666 41.1 23.7666H42.6096C42.4995 26.4008 41.7947 28.9759 40.548 31.2991C40.4514 31.478 40.4299 31.688 40.4881 31.8828C40.5463 32.0776 40.6796 32.2414 40.8585 32.3379Z" fill="#313030"/>
</g>
<defs>
<clipPath id="clip0_17_2361">
<rect width="48" height="48" fill="white"/>
</clipPath>
</defs>
</svg>
