<svg width="359" height="254" viewBox="0 0 359 254" fill="none" xmlns="http://www.w3.org/2000/svg">
<path d="M3.99999 200.5L21 212L39.5 184L76 140L90.5 130L137.5 127.5C137.5 127.5 161.255 140.659 176 145C183.274 147.141 192 148.5 192 148.5L204 153.5L233.009 170.344C234.241 171.059 235 172.377 235 173.803V176.516C235 178.44 235.694 180.301 236.954 181.755L248 194.5L297 252.5L299.473 253.399C300.867 253.906 302.308 252.773 302.144 251.299L302 250L303.5 249C303.5 249 307.922 253.175 310 253.5C314.27 254.168 322 250 322 250C322 250 326.915 248.185 330 244C331.193 242.382 331.5 239.5 332.5 239.5C333.305 239.5 334.5 240 334.5 240C334.5 240 336.115 237.955 340 235C344.321 231.713 349 230 351 226.5C354.455 220.453 354.5 206 356 188.5C356.235 185.759 356.925 182.344 357.585 179.517C358.422 175.928 358.207 172.15 356.756 168.763L354.5 163.5L355.5 146.5L353.5 126L353 102L341.054 77.2547C339.734 74.5204 337.427 72.3881 334.597 71.2876L330 69.5C330 69.5 319 59 318 55C314.626 41.5022 310.309 20.2302 308.229 9.75412C307.501 6.08941 304.349 3.4145 300.615 3.29404L291.5 3L259.5 2.5V7.03252C259.5 8.12431 258.624 9.01435 257.533 9.03225L230.83 9.47C229.794 9.48698 228.917 8.71002 228.808 7.67964L228.486 4.61569C228.212 2.01282 225.977 0.0616769 223.361 0.141434L146 2.5C146 2.5 122.732 12.4808 110 22C101.479 28.3711 99.2372 33.9373 90 40C85.2547 43.1145 83.233 41.6998 78 45.5C70.1764 51.1815 66 56 59 63C56.0743 65.9257 54.5 74 54.5 74L51 81C51 81 55.4094 81.2241 56 83.5C57.1873 88.0752 48.9244 89.2673 45.5 93C41.6993 97.1428 38.5 105 38.5 105C38.5 105 30.3571 118.276 26.5 126.5C16.4058 148.022 2.5 181.5 2.5 181.5L2.99999 185C2.99999 185 0.538485 190.449 0.99999 194.5C1.33664 197.455 3.99999 200.5 3.99999 200.5Z" fill="#FFE145"/>
</svg>
