<svg width="236" height="164" viewBox="0 0 236 164" fill="none" xmlns="http://www.w3.org/2000/svg">
<path d="M0 137.5L55.5 164L62.5 149L82.5 131L95 126L116 106.5L131.5 97L152.138 88.0883C153.038 87.6994 154.003 87.4795 154.983 87.4395L178 86.5L235.5 85.5L232.5 14L211.5 13L210.887 22.4996C210.673 25.8115 207.812 28.3208 204.5 28.1L195.5 27.5L203 19L200.815 12.1316C199.965 9.46167 198.208 7.17316 195.848 5.66281L187 0L170 26L155 35.5L117 52L105.5 57.5L81 78.5L54 93L41.5 101.5L34 109L18 121L0 137.5Z" fill="#FFE145"/>
</svg>
